PathFileType	4	(X/Y/Z)	43_1_11_p1_0-310_filt_butterworth.trc
DataRate	CameraRate	NumFrames	NumMarkers	Units	OrigDataRate	OrigDataStartFrame	OrigNumFrames
60.0	60.0	7	27	m	60.0	232	310
Frame#	Time	RHip			RKnee			RAnkle			RBigToe			RSmallToe			RHeel			LHip			LKnee			LAnkle			LBigToe			LSmallToe			LHeel			Neck			Head			Nose			RShoulder			RElbow			RWrist			RThumb			RIndex			RPinky			LShoulder			LElbow			LWrist			LThumb			LIndex			LPinky			
		X1	Y1	Z1	X2	Y2	Z2	X3	Y3	Z3	X4	Y4	Z4	X5	Y5	Z5	X6	Y6	Z6	X7	Y7	Z7	X8	Y8	Z8	X9	Y9	Z9	X10	Y10	Z10	X11	Y11	Z11	X12	Y12	Z12	X13	Y13	Z13	X14	Y14	Z14	X15	Y15	Z15	X16	Y16	Z16	X17	Y17	Z17	X18	Y18	Z18	X19	Y19	Z19	X20	Y20	Z20	X21	Y21	Z21	X22	Y22	Z22	X23	Y23	Z23	X24	Y24	Z24	X25	Y25	Z25	X26	Y26	Z26	X27	Y27	Z27	
232	3.8666666666666663	0.2495277883128283	0.45685533187701866	1.153791369193159	0.20317246567396538	0.5195088275026531	1.6007839703783489	0.15479067875874522	0.49318193521725495	1.9696015865533583	0.1440127630838903	0.37776629912638854	2.0009165551158308	0.20540322003885314	0.3762750110029824	2.000377737144187	0.11967398309229701	0.5461802134956335	2.0267376633478977	0.03511193784974475	0.415910350465864	1.1443884252730925	-0.0036691065499175443	0.477039726910938	1.5711043237549054	-0.028758245525699278	0.510818160916535	1.9955203867047597	-0.0033396334763640192	0.35815737915201573	1.991920216704538	-0.062311692722411015	0.3880707031234785	1.996972031379891	-0.032384852985481834	0.5610922907561084	2.055476418547829	0.16988569328018951	0.45102757336320415	0.6101866637354842	0.19956392182397828	0.4161247502896106	0.37381311214324464	0.211492299499135	0.3476755518048578	0.4931069965462842	0.33153747084074625	0.47172266376494487	0.6966265885871403	0.41610297268937607	0.45465259479229325	0.9100894866609234	0.5174420946835273	0.31143259200815543	0.9514171916470323	0.5520736534001981	0.213207723755807	1.0105390796796276	0.5644747936854299	0.21025431215334853	1.0118329168417506	0.5869247334537516	0.29487195150865697	1.04181774848608	-0.006348069286449999	0.43152525747300924	0.6742669789789872	-0.12774147299933275	0.4011515536158436	0.8674707855205895	-0.22710614661330458	0.2795435713892399	0.9600439939030156	-0.23778540713785626	0.19515803878669358	0.9885956659985315	-0.2674681499458175	0.18680398246499674	0.9894405602647507	-0.27629098888162856	0.20727799918284623	1.018877556256905
233	3.883333333333333	0.24950773206687665	0.45718800348794264	1.1544620014524165	0.20311947621049775	0.5194973795161358	1.5997657873087532	0.15488216682115197	0.4936659125208128	1.9710743591823445	0.14359226431016586	0.37682875753722256	1.9989107682568805	0.20537690201516917	0.376387895825826	2.000423423053612	0.1195789456585031	0.5452008729642903	2.0265484779123044	0.035123713702966325	0.41581024436382735	1.1444584138286997	-0.004485980557668544	0.48072955166387077	1.5742643442732691	-0.02859603848344601	0.5109298425222228	1.9968571649747076	-0.0033311454150270706	0.35827989926111237	1.992164854045233	-0.06229000786935883	0.38807555443492264	1.9969632542327755	-0.03239547593033362	0.5598930851680816	2.0547848435394185	0.1705283905466284	0.4498109120241013	0.6100143375080547	0.20136004345730504	0.41324037809072656	0.3726887949939665	0.21214458562336216	0.3466158400061794	0.4923647070698519	0.33202079012451463	0.47476731038910464	0.697838766784919	0.41670342562075663	0.4697809123069135	0.9130193722946897	0.5150463011523196	0.31267846326300086	0.9511475341596294	0.5429397575513695	0.2136384689006302	1.0104766204471627	0.5602544849498635	0.20923424091853182	1.0118252270766386	0.5779572966919313	0.2892873599970527	1.0416779282826198	-0.006667027527421886	0.43277591999419784	0.6744787369944165	-0.13020356929906415	0.4046291433312041	0.8665489490546717	-0.22859494315277804	0.28675709358365986	0.9660515634554169	-0.23362685553351387	0.19418274651156173	0.9972939500922657	-0.265934006155835	0.19108148043047204	1.0066384508811093	-0.2741696138208722	0.2082013153950446	1.0342428680475402
234	3.9	0.24957065184330512	0.457851337735198	1.1557422271823783	0.2028463399234712	0.5194468051935379	1.597469699113121	0.15495759499902484	0.49387952282883407	1.9716770495731764	0.1419123532199695	0.3771651417897596	1.998282620473665	0.2053159401029591	0.3765260719781126	2.000518261505405	0.12022449162951943	0.5477932113700372	2.029279743737474	0.03510063440433134	0.41567527099437707	1.144406179771269	-0.004441954163717749	0.4825580626762411	1.5776030461556716	-0.027518544691435932	0.511003169325916	1.997256399875268	-0.0033538201686693237	0.3580716271385	1.9913457467006357	-0.06228585805512368	0.38808068754867275	1.996968759592641	-0.03239172587072656	0.556590615876622	2.053327379372661	0.17207732189333574	0.4468441525430353	0.6096758083421132	0.20276973827740957	0.41205594517201133	0.37222936337223406	0.2136755423058856	0.34384157064870424	0.49117727875915246	0.3322040713013585	0.47608677355767465	0.6987453456749941	0.4169573346134391	0.4905225540925082	0.918324107071741	0.510946391077704	0.31287628730726136	0.9517442125013182	0.5272746279097509	0.20905902017030517	1.0087808955850286	0.5535297789136507	0.20411068869006718	1.0110714837152432	0.5632438327199459	0.2828031690354368	1.042827784618553	-0.00759980841819193	0.43205881127199547	0.6743584220310018	-0.1320724303154614	0.406990292308997	0.8668951679495002	-0.22841079832468997	0.29097449420657234	0.9716975965846257	-0.2266249828311579	0.1930610167909531	1.0071284157367804	-0.2628863475056269	0.1950447673692234	1.0247368908713084	-0.2702240533400211	0.21180117660012915	1.0496493165636278
235	3.9166666666666665	0.24964639410269318	0.4585099777734788	1.156826072636787	0.20232271427259754	0.519355787137315	1.5947181105389958	0.1550374779437891	0.49389290413635367	1.97171493140992	0.13959193790410082	0.37791426222022206	1.998779382320523	0.20524382178012116	0.3766307433104701	2.0006274748983754	0.12180174620822412	0.5536709249944181	2.034420986001455	0.03495340859341017	0.41556539324264263	1.1438741891439579	-0.0041467451962255665	0.48310392058771817	1.580186366517514	-0.026156426568951327	0.5110007803315397	1.9965218414949062	-0.0033644947700443447	0.35777170810915493	1.9897326771787043	-0.062288919658270304	0.3880766460321971	1.9969761489222548	-0.032365416164476773	0.5520036800012089	2.0519320098316034	0.17410486540746437	0.4429705536687208	0.6091747928457364	0.20337428380897693	0.41204208539301024	0.3722155358940928	0.21567845913693973	0.3400521390500363	0.4900512495651883	0.3321855222271889	0.47637124672897435	0.6993244331155356	0.4161304306888299	0.5101957886392507	0.9246071714034123	0.5032032795628115	0.31326967752666324	0.9544946411206887	0.5070455597660765	0.2002483425472987	1.00626397652995	0.5404865938611788	0.19426099946146538	1.009181948241988	0.5450437867773367	0.27656758575950385	1.0454636049503239	-0.008905642701764811	0.43065615903500687	0.6740717516043495	-0.13296267507377146	0.40786530753703165	0.8680106872323791	-0.2248430353500245	0.28992083565552346	0.9763003387622842	-0.21621169781061816	0.19326854368740315	1.0179613342736211	-0.25449417632246785	0.19678371558642838	1.0390170464838524	-0.2648581364873032	0.22102177577271756	1.0631969154458436
236	3.933333333333333	0.24951848705116925	0.4581532602905034	1.1564977420679106	0.2018228765768597	0.5193661022320792	1.5929980860556279	0.15510943052649073	0.49385397036870615	1.9716292603239043	0.137662637711674	0.3783367203363378	1.9995648828049624	0.20522098510628164	0.37668965236909563	2.000620450336798	0.12364555313312463	0.5604003459359941	2.0396714478790834	0.03455444246653417	0.4154396589013782	1.142575931200963	-0.004003175688166563	0.4830353147703649	1.5815100206928006	-0.025755812105104102	0.5109299188490964	1.9953804841863227	-0.003306194228308825	0.35755306792208075	1.9875574815406245	-0.06228958151919785	0.38805131882687716	1.9969696871165685	-0.03232995835484419	0.5482651022481579	2.051524719910312	0.17564904630199446	0.4400160521747835	0.6087718372340138	0.20346274739227743	0.412278362209464	0.37232008456396887	0.21722284380090878	0.33701747412502364	0.48942375301726937	0.33210686544228096	0.4763380080104045	0.6995369307955145	0.41432576174354707	0.5234657130331761	0.930010114123795	0.4900263301917581	0.31537578575942843	0.9601220214730579	0.48608099310396186	0.19192076110111767	1.0041731024940608	0.5189080274440402	0.18464614290448925	1.0064984555213048	0.5253918034656141	0.2689771225722551	1.0481382437008393	-0.009995799517143383	0.4295571534254717	0.6736437352285446	-0.13325158914981536	0.409031353184675	0.8697900546715811	-0.2157610109786814	0.2824481507610508	0.9789028084765392	-0.20311274539049856	0.19662035548032009	1.0294874786792376	-0.23885939290849936	0.19506815331427613	1.0473124749130116	-0.25907789825892935	0.2370546961042231	1.0747468765139048
237	3.95	0.24898705082591452	0.45576764931001296	1.1547567848927023	0.2017439011161281	0.5196710827688598	1.5931819375055696	0.1551433400720901	0.4938251970335386	1.9716251697036746	0.1367343746401713	0.37826432630699686	1.999918635827355	0.20534912358881102	0.37670720040268724	2.000208327743858	0.12467476171510483	0.5635735043594037	2.041909870535262	0.03394433074313833	0.41509929350738395	1.140954986696148	-0.004243964271393186	0.482623974822149	1.5818170565899474	-0.026546484911252166	0.5108410130261686	1.994524155521671	-0.0030846278014499077	0.35738112086480295	1.985235542968952	-0.0622848626598918	0.388004870316609	1.9969463405563956	-0.0323048769650518	0.54657575034327	2.051936516163546	0.17627134626314084	0.43882338236393237	0.6086098343127503	0.20346898952098133	0.412291481494236	0.37239001328242166	0.2177312599798177	0.3359089535148559	0.4892857186318357	0.3320453687130513	0.47631733769697876	0.6995675356117641	0.4125738607195672	0.529732435585078	0.9339778706341446	0.47301612557254624	0.31973779232904553	0.9676681156221603	0.46629191649992063	0.1879663984649421	1.0026464566771145	0.4918764659026976	0.18087157139961357	1.003773689103313	0.5036521778245544	0.2564213364155404	1.0494142623737084	-0.01046937375943777	0.42913987830124123	0.6730643575328829	-0.13319826238351298	0.41181009671865343	0.8718799737805498	-0.20159745621937916	0.2712774720164959	0.9797159474893486	-0.1900245856508348	0.20475285402464333	1.0412697905364376	-0.21938865593602422	0.19323139817975712	1.0517517746502358	-0.25305593974647284	0.2568454285848262	1.0852608271128164
238	3.966666666666667	0.24808899781795446	0.45152404289106873	1.1534035706152563	0.20215986578364617	0.5201874388873928	1.5951204946171778	0.15513560569030804	0.49377059077054875	1.9716980125491295	0.13662876935713145	0.3781814384729033	2.0001303155838532	0.20569305801604276	0.37664879211254143	1.999174549986384	0.1248247434303909	0.5603531403943535	2.0395697663286327	0.033464495026174886	0.41437779422376303	1.1403460178695788	-0.004880894061931008	0.48211879421301057	1.5820208540976657	-0.02758869768113958	0.5107941106251216	1.9941228032045502	-0.002640306610082211	0.3571520603737678	1.9833553798630474	-0.06227445927503034	0.3879572081215144	1.9969165545104728	-0.03229823193017242	0.5463884805788289	2.0524049981468466	0.17629865115960608	0.4388009652568403	0.608605913783724	0.2035532445058103	0.41206875310797275	0.37240615406914956	0.2171220447397656	0.33694293694509553	0.4894493308307341	0.33202807203002094	0.4764544954858016	0.6997665271683303	0.41158260435593746	0.5313865658184524	0.9372934817825267	0.4566031729537668	0.3243092165041418	0.9747518827942498	0.44534691649085084	0.18748490139930324	1.001057458982313	0.46357734945649204	0.18130755065120602	1.0019072885339124	0.4790129287143654	0.23939587185137629	1.0497021902564154	-0.010190304049015724	0.4293977045905399	0.6725810130807939	-0.1323287589973379	0.4149250610948686	0.8735550483162908	-0.18613455171593724	0.26120288892681803	0.9801534036910526	-0.17903637599440592	0.21771368475602149	1.0528216427678054	-0.20215946963616566	0.19761267781382252	1.056625298517335	-0.24505829833668918	0.2717495433480516	1.0950316398000677
